<svg width="719" height="914" viewBox="0 0 719 914" fill="none" xmlns="http://www.w3.org/2000/svg">
<circle cx="512.067" cy="273.067" r="176" transform="rotate(-174.924 512.067 273.067)" fill="#FEEB4F" stroke="#282828" stroke-width="28"/>
<path d="M496.195 251.042L416.5 175.604C416.5 175.604 423.5 160.604 453.5 147.604C483.5 134.604 496.194 140.604 496.194 140.604L496.195 251.042Z" fill="#FFCC05"/>
<path d="M482.977 270.08L373.24 270.306C373.24 270.306 367.979 254.612 380.768 224.521C393.556 194.43 406.891 190.033 406.891 190.033L482.977 270.08Z" fill="#FFCC05"/>
<path d="M520.332 308.001L599.101 384.406C599.101 384.406 591.918 399.319 561.762 411.952C531.606 424.585 518.986 418.431 518.986 418.431L520.332 308.001Z" fill="#FFCC05"/>
<path d="M535.972 290.002L645.709 290.132C645.709 290.132 650.919 305.844 638.033 335.893C625.147 365.943 611.798 370.296 611.798 370.296L535.972 290.002Z" fill="#FFCC05"/>
<path d="M536.808 271.651L609.839 189.744C609.839 189.744 625.041 196.294 638.929 225.894C652.817 255.493 647.198 268.36 647.198 268.36L536.808 271.651Z" fill="#FFCC05"/>
<path d="M519.622 251.608L517.817 141.886C517.817 141.886 533.434 136.4 563.706 148.754C593.978 161.108 598.566 174.378 598.566 174.378L519.622 251.608Z" fill="#FFCC05"/>
<rect x="22" y="270" width="511" height="130" fill="white"/>
<path d="M41.7634 13.5348C37.0882 2.6198 24.4498 -2.43856 13.5348 2.23664C2.6198 6.91184 -2.43856 19.5502 2.23664 30.4652L41.7634 13.5348ZM22 22L2.23664 30.4652L253.237 616.465L273 608L292.763 599.535L41.7634 13.5348L22 22Z" fill="#282828"/>
<path d="M33 384.5H519L464.5 888H77L33 384.5Z" fill="#FED415"/>
<path d="M519.452 270H27.2491C20.7075 270 15.6193 275.751 16.3263 282.254C41.9324 517.794 63.2954 654.905 88.9298 891.104C89.536 896.69 94.2593 901 99.8783 901H463.957C469.645 901 474.395 896.663 474.911 890.998L530.407 281.998C530.994 275.556 525.921 270 519.452 270Z" stroke="#282828" stroke-width="25"/>
<circle cx="165.048" cy="479.223" r="31.0484" fill="#FFEB55"/>
<circle cx="379.282" cy="763.833" r="25.8737" fill="#FFEB55"/>
<circle cx="352.891" cy="461.112" r="18.1116" fill="#FFEB55"/>
<circle cx="287.69" cy="716.743" r="18.1116" fill="#FFEB55"/>
<circle cx="400.499" cy="562.536" r="29.496" fill="#FFEB55"/>
<circle cx="186.265" cy="798.504" r="29.496" fill="#FFEB55"/>
<circle cx="269.061" cy="556.327" r="23.2863" fill="#FFEB55"/>
<circle cx="172.811" cy="630.843" r="23.2863" fill="#FFEB55"/>
</svg>
